HIERARCHY
ROOT joint_Root
{
	OFFSET 0.0 0.0 0.0
	CHANNELS 6 Xposition Yposition Zposition Zrotation Xrotation Yrotation 
	JOINT Hips
	{
		OFFSET 4.5925 91.4895 -427.239
		CHANNELS 6 Xposition Yposition Zposition Zrotation Xrotation Yrotation 
		JOINT Spine
		{
			OFFSET 15.7357 0.0 0.0
			CHANNELS 6 Xposition Yposition Zposition Zrotation Xrotation Yrotation 
			JOINT Chest
			{
				OFFSET 8.98455 -0.406207 0.0
				CHANNELS 6 Xposition Yposition Zposition Zrotation Xrotation Yrotation 
				JOINT Neck
				{
					OFFSET 16.3773 0.0 0.0
					CHANNELS 6 Xposition Yposition Zposition Zrotation Xrotation Yrotation 
					JOINT Head
					{
						OFFSET 6.45672 0.0 0.0
						CHANNELS 6 Xposition Yposition Zposition Zrotation Xrotation Yrotation 
						End Site
						{
							OFFSET 0.0 0.0 0.0
						}
					}
				}
				JOINT Shoulder_L
				{
					OFFSET 12.9942 -0.242716 4.98039
					CHANNELS 6 Xposition Yposition Zposition Zrotation Xrotation Yrotation 
					JOINT UpperArm_L
					{
						OFFSET 5.34809 0.0 0.0
						CHANNELS 6 Xposition Yposition Zposition Zrotation Xrotation Yrotation 
						JOINT LowerArm_L
						{
							OFFSET 24.3286 1.87007e-05 0.0
							CHANNELS 6 Xposition Yposition Zposition Zrotation Xrotation Yrotation 
							JOINT Hand_L
							{
								OFFSET 22.2916 0.0 0.0
								CHANNELS 6 Xposition Yposition Zposition Zrotation Xrotation Yrotation 
								End Site
								{
									OFFSET 0.0 0.0 0.0
								}
							}
						}
					}
				}
				JOINT Shoulder_R
				{
					OFFSET 12.9945 -0.242716 -4.98039
					CHANNELS 6 Xposition Yposition Zposition Zrotation Xrotation Yrotation 
					JOINT UpperArm_R
					{
						OFFSET -5.34813 0.0 0.0
						CHANNELS 6 Xposition Yposition Zposition Zrotation Xrotation Yrotation 
						JOINT LowerArm_R
						{
							OFFSET -24.3289 0.000322201 0.0
							CHANNELS 6 Xposition Yposition Zposition Zrotation Xrotation Yrotation 
							JOINT Hand_R
							{
								OFFSET -22.2915 -0.000108084 0.0
								CHANNELS 6 Xposition Yposition Zposition Zrotation Xrotation Yrotation 
								End Site
								{
									OFFSET 0.0 0.0 0.0
								}
							}
						}
					}
				}
			}
		}
		JOINT UpperLeg_L
		{
			OFFSET -2.19248 -6.46944 0.0
			CHANNELS 6 Xposition Yposition Zposition Zrotation Xrotation Yrotation 
			JOINT LowerLeg_L
			{
				OFFSET 39.0811 0.0 -1.23785e-05
				CHANNELS 6 Xposition Yposition Zposition Zrotation Xrotation Yrotation 
				JOINT Foot_L
				{
					OFFSET 40.9854 0.0 -1.26872e-05
					CHANNELS 6 Xposition Yposition Zposition Zrotation Xrotation Yrotation 
					JOINT Toes_L
					{
						OFFSET 11.7543 0.0 0.0
						CHANNELS 6 Xposition Yposition Zposition Zrotation Xrotation Yrotation 
						End Site
						{
							OFFSET 0.0 0.0 0.0
						}
					}
				}
			}
		}
		JOINT UpperLeg_R
		{
			OFFSET -2.19251 6.46944 0.0
			CHANNELS 6 Xposition Yposition Zposition Zrotation Xrotation Yrotation 
			JOINT LowerLeg_R
			{
				OFFSET -39.0811 -0.00228153 -0.0401928
				CHANNELS 6 Xposition Yposition Zposition Zrotation Xrotation Yrotation 
				JOINT Foot_R
				{
					OFFSET -40.9854 0.0 0.0
					CHANNELS 6 Xposition Yposition Zposition Zrotation Xrotation Yrotation 
					JOINT Toes_R
					{
						OFFSET -11.7543 0.0 0.0
						CHANNELS 6 Xposition Yposition Zposition Zrotation Xrotation Yrotation 
						End Site
						{
							OFFSET 0.0 0.0 0.0
						}
					}
				}
			}
		}
	}
}
MOTION
Frames:	9
Frame Time:	0.0333333
0.000000 0.000000 0.000000 0.000000 0.000000 -0.000000 136.908000 89.497000 -70.246900 88.132700 1.208410 1.341390 15.735700 0.000005 -0.000001 79.826500 81.766000 -79.541400 8.984550 -0.406207 -0.000000 8.458320 -2.893300 0.783846 16.377300 -0.000001 -0.000001 2.040410 -4.143550 1.202980 6.456720 -0.000001 -0.000000 -1.179300 -3.299220 0.813445 12.994200 -0.242716 4.980390 -90.896800 3.313370 -74.846100 5.348090 -0.000007 -0.000001 -52.071600 33.403400 -35.023700 24.328600 0.000019 0.000005 9.700280 14.580700 -34.177000 22.291600 -0.000001 0.000005 15.488100 5.273050 0.815451 12.994500 -0.242716 -4.980390 88.345900 9.892000 -80.458100 -5.348130 -0.000001 -0.000004 -69.653000 29.148000 -2.276470 -24.328900 0.000322 -0.000009 1.221890 3.954880 -17.198300 -22.291500 -0.000108 -0.000004 13.427200 5.379210 -2.273430 -2.192480 -6.469440 -0.000000 -177.450000 -5.457790 -4.481960 39.081100 -0.000007 -0.000012 -0.205072 0.315118 33.055500 40.985400 -0.000006 -0.000013 1.445180 -0.185122 -77.645400 11.754300 -0.000000 0.000003 -0.546240 -0.730580 -16.191400 -2.192510 6.469440 -0.000001 -175.065000 14.213400 154.200000 -39.081100 -0.002282 -0.040193 0.024383 -0.028382 36.622300 -40.985400 0.000008 0.000006 5.825440 4.684270 -62.242200 -11.754300 -0.000006 -0.000006 -0.011921 -0.117474 -21.361900
0.000000 0.000000 0.000000 0.000000 0.000000 -0.000000 136.469000 88.978100 -67.966300 87.831400 2.162590 1.340890 15.735700 0.000005 -0.000001 78.783500 81.787700 -78.210700 8.984550 -0.406207 -0.000000 8.370690 -3.177100 1.377200 16.377300 -0.000001 -0.000001 2.198650 -4.185280 1.068090 6.456720 -0.000001 -0.000000 -0.874502 -3.231730 0.574933 12.994200 -0.242716 4.980390 -90.873300 3.213320 -74.787600 5.348090 -0.000007 -0.000001 -51.774900 33.407200 -36.052500 24.328600 0.000019 0.000005 10.078100 14.404100 -35.544800 22.291600 -0.000001 0.000005 15.777500 5.272000 0.844031 12.994500 -0.242716 -4.980390 88.306400 9.908410 -80.250000 -5.348130 -0.000001 -0.000004 -69.924400 29.070600 -1.421810 -24.328900 0.000322 -0.000009 1.278910 4.388760 -16.276600 -22.291500 -0.000108 -0.000004 13.040300 5.372260 -2.056560 -2.192480 -6.469440 -0.000000 -176.954000 -4.894860 -3.405100 39.081100 -0.000007 -0.000012 0.003722 -0.005485 34.148100 40.985400 -0.000006 -0.000013 3.548490 -0.790079 -79.957700 11.754300 -0.000000 0.000003 -1.142120 -1.489910 -14.797300 -2.192510 6.469440 -0.000001 -174.618000 13.442800 154.481000 -39.081100 -0.002282 -0.040193 0.032806 -0.036577 38.910500 -40.985400 0.000008 0.000006 8.349220 2.038010 -63.307100 -11.754300 -0.000006 -0.000006 -0.010554 -0.107733 -20.963200
0.000000 0.000000 0.000000 0.000000 0.000000 -0.000000 136.053000 88.531500 -65.620900 87.788100 2.910080 1.620030 15.735700 0.000005 -0.000001 78.544300 81.735100 -77.743900 8.984550 -0.406207 -0.000000 8.468130 -3.262640 1.841270 16.377300 -0.000001 -0.000001 2.268690 -4.198860 0.939855 6.456720 -0.000001 -0.000000 -0.703510 -3.169330 0.427200 12.994200 -0.242716 4.980390 -90.937900 3.446900 -74.769200 5.348090 -0.000007 -0.000001 -51.785000 33.525900 -36.343700 24.328600 0.000019 0.000005 10.494200 14.426200 -36.631100 22.291600 -0.000001 0.000005 16.096300 5.272200 0.838704 12.994500 -0.242716 -4.980390 88.203500 10.293900 -80.044900 -5.348130 -0.000001 -0.000004 -69.369900 29.298700 -1.108540 -24.328900 0.000322 -0.000009 1.234790 4.401280 -15.701200 -22.291500 -0.000108 -0.000004 13.021200 5.369070 -1.957780 -2.192480 -6.469440 -0.000000 -176.360000 -4.312440 -3.620340 39.081100 -0.000007 -0.000012 0.004243 -0.005462 37.832700 40.985400 -0.000006 -0.000013 2.773650 -0.534229 -80.103300 11.754300 -0.000000 0.000003 0.001252 0.024728 -15.573700 -2.192510 6.469440 -0.000001 -174.656000 12.525700 155.253000 -39.081100 -0.002282 -0.040193 0.038989 -0.040627 41.317800 -40.985400 0.000008 0.000006 9.077310 0.021673 -65.710000 -11.754300 -0.000006 -0.000006 -0.008402 -0.091281 -20.290500
0.000000 0.000000 0.000000 0.000000 0.000000 -0.000000 135.679000 88.227300 -63.317100 87.992100 3.164570 2.149580 15.735700 0.000005 -0.000001 79.183500 81.559500 -78.283300 8.984550 -0.406207 -0.000000 8.850380 -3.143380 2.042410 16.377300 -0.000001 -0.000001 2.277010 -4.077870 1.027190 6.456720 -0.000001 -0.000000 -0.718794 -3.044840 0.411848 12.994200 -0.242716 4.980390 -90.951000 3.500900 -74.791700 5.348090 -0.000007 -0.000001 -52.915200 33.470200 -35.608800 24.328600 0.000019 0.000005 10.781000 14.509100 -37.236300 22.291600 -0.000001 0.000005 16.631500 5.272520 0.830034 12.994500 -0.242716 -4.980390 88.156200 10.642300 -80.112200 -5.348130 -0.000001 -0.000004 -68.495300 29.641600 -1.798620 -24.328900 0.000322 -0.000009 1.167300 4.382320 -14.944100 -22.291500 -0.000108 -0.000004 13.187500 5.368580 -1.942690 -2.192480 -6.469440 -0.000000 -175.881000 -4.446280 -5.210580 39.081100 -0.000007 -0.000012 0.008476 -0.008756 44.062100 40.985400 -0.000006 -0.000013 2.152560 0.431666 -77.565500 11.754300 -0.000000 0.000003 -0.011398 -0.113814 -21.215800 -2.192510 6.469440 -0.000001 -174.955000 12.156300 156.547000 -39.081100 -0.002282 -0.040193 0.045223 -0.044688 43.192600 -40.985400 0.000008 0.000006 9.334950 -0.959332 -67.875800 -11.754300 -0.000006 -0.000006 -0.006293 -0.073477 -19.563700
0.000000 0.000000 0.000000 0.000000 0.000000 -0.000000 135.318000 88.072700 -61.170100 88.316200 3.447870 2.710450 15.735700 0.000005 -0.000001 79.984900 81.368300 -79.053800 8.984550 -0.406207 -0.000000 9.268550 -2.973530 2.102090 16.377300 -0.000001 -0.000001 2.340350 -4.114220 1.172880 6.456720 -0.000001 -0.000000 -0.706071 -3.029810 0.604815 12.994200 -0.242716 4.980390 -90.891700 3.300270 -74.871300 5.348090 -0.000007 -0.000001 -54.490800 33.798600 -34.472900 24.328600 0.000019 0.000005 10.574000 14.353300 -36.980600 22.291600 -0.000001 0.000005 16.847000 5.275460 0.749969 12.994500 -0.242716 -4.980390 88.187300 10.647800 -80.280700 -5.348130 -0.000001 -0.000004 -67.765300 29.655100 -3.111690 -24.328900 0.000322 -0.000009 1.209920 4.734700 -14.364400 -22.291500 -0.000108 -0.000004 13.398400 5.362470 -1.754990 -2.192480 -6.469440 -0.000000 -175.432000 -4.864020 -8.851360 39.081100 -0.000007 -0.000012 0.024733 -0.018943 52.546300 40.985400 -0.000006 -0.000013 1.736160 1.702540 -71.206800 11.754300 -0.000000 0.000003 -0.047216 -0.287701 -28.418000 -2.192510 6.469440 -0.000001 -175.432000 13.162300 158.332000 -39.081100 -0.002282 -0.040193 0.051970 -0.050151 44.161300 -40.985400 0.000008 0.000006 9.578830 -0.572815 -70.143200 -11.754300 -0.000006 -0.000006 -0.005183 -0.063227 -19.145800
0.000000 0.000000 0.000000 0.000000 0.000000 -0.000000 134.989000 87.988200 -59.158300 88.593000 3.466070 3.339990 15.735700 0.000005 -0.000001 81.368200 81.160400 -80.416400 8.984550 -0.406207 -0.000000 9.743120 -2.621050 2.125710 16.377300 -0.000001 -0.000001 2.388870 -4.134620 1.508520 6.456720 -0.000001 -0.000000 -0.684684 -3.169760 0.720186 12.994200 -0.242716 4.980390 -90.886200 3.262560 -74.794700 5.348090 -0.000007 -0.000001 -55.581700 34.745500 -33.444000 24.328600 0.000019 0.000005 10.174100 14.271400 -36.054400 22.291600 -0.000001 0.000005 16.532500 5.277180 0.703300 12.994500 -0.242716 -4.980390 88.290000 10.414100 -80.621800 -5.348130 -0.000001 -0.000004 -66.979600 29.376600 -4.776760 -24.328900 0.000322 -0.000009 1.217170 4.764960 -14.359100 -22.291500 -0.000108 -0.000004 13.690100 5.358800 -1.643180 -2.192480 -6.469440 -0.000000 -174.981000 -5.196580 -13.658000 39.081100 -0.000007 -0.000012 0.056181 -0.030532 61.473600 40.985400 -0.000006 -0.000013 0.244775 2.155790 -63.154800 11.754300 -0.000000 0.000003 -0.029274 -0.214130 -25.347600 -2.192510 6.469440 -0.000001 -175.968000 14.560000 160.389000 -39.081100 -0.002282 -0.040193 0.056774 -0.054302 44.578300 -40.985400 0.000008 0.000006 9.876890 0.428356 -72.179700 -11.754300 -0.000006 -0.000006 -0.004621 -0.057748 -18.922500
0.000000 0.000000 0.000000 0.000000 0.000000 -0.000000 134.822000 87.958200 -57.138900 88.820100 2.675340 3.845260 15.735700 0.000005 -0.000001 83.808500 81.026700 -82.924100 8.984550 -0.406207 -0.000000 10.095400 -1.905220 1.936120 16.377300 -0.000001 -0.000001 2.452820 -4.026600 1.917060 6.456720 -0.000001 -0.000000 -0.516786 -3.393560 1.018430 12.994200 -0.242716 4.980390 -90.956400 3.463270 -74.552100 5.348090 -0.000007 -0.000001 -56.320100 35.926600 -32.042300 24.328600 0.000019 0.000005 10.095900 14.760200 -34.948400 22.291600 -0.000001 0.000005 16.012000 5.279040 0.652345 12.994500 -0.242716 -4.980390 88.371300 10.503200 -81.134300 -5.348130 -0.000001 -0.000004 -65.505600 29.628300 -6.931740 -24.328900 0.000322 -0.000009 1.033090 3.954940 -14.666300 -22.291500 -0.000108 -0.000004 14.133600 5.371210 -2.024210 -2.192480 -6.469440 -0.000000 -174.869000 -6.094350 -17.115900 39.081100 -0.000007 -0.000012 0.090590 -0.037556 67.479400 40.985400 -0.000006 -0.000013 -1.369520 0.656133 -58.401100 11.754300 -0.000000 0.000003 -0.003275 -0.043682 -18.353300 -2.192510 6.469440 -0.000001 -176.559000 14.915000 162.442000 -39.081100 -0.002282 -0.040193 0.057990 -0.055271 44.715100 -40.985400 0.000008 0.000006 10.165900 1.263400 -73.768600 -11.754300 -0.000006 -0.000006 -0.003738 -0.048687 -18.553400
0.000000 0.000000 0.000000 0.000000 0.000000 -0.000000 134.782000 88.060900 -55.160200 89.220700 1.670410 4.087580 15.735700 0.000005 -0.000001 85.848700 81.001700 -85.138300 8.984550 -0.406207 -0.000000 10.193600 -1.279290 1.533900 16.377300 -0.000001 -0.000001 2.615550 -3.874510 2.153680 6.456720 -0.000001 -0.000000 -0.378181 -3.586870 1.373580 12.994200 -0.242716 4.980390 -91.070500 3.793520 -74.229000 5.348090 -0.000007 -0.000001 -57.373500 37.062300 -29.658000 24.328600 0.000019 0.000005 10.004100 15.352000 -33.675300 22.291600 -0.000001 0.000005 15.675100 5.281670 0.580343 12.994500 -0.242716 -4.980390 88.388200 10.796500 -81.457100 -5.348130 -0.000001 -0.000004 -63.319900 30.493600 -9.839880 -24.328900 0.000322 -0.000009 0.989386 3.685080 -15.055100 -22.291500 -0.000108 -0.000004 14.418200 5.372770 -2.072430 -2.192480 -6.469440 -0.000000 -175.533000 -6.842480 -19.179800 39.081100 -0.000007 -0.000012 0.082245 -0.029630 70.184100 40.985400 -0.000006 -0.000013 0.040579 -1.633860 -61.680500 11.754300 -0.000000 0.000003 -0.003004 -0.040651 -18.230000 -2.192510 6.469440 -0.000001 -177.342000 14.637100 164.444000 -39.081100 -0.002282 -0.040193 0.055270 -0.053230 44.332400 -40.985400 0.000008 0.000006 10.131100 1.812920 -74.872500 -11.754300 -0.000006 -0.000006 -0.003705 -0.048334 -18.539100
0.000000 0.000000 0.000000 0.000000 0.000000 -0.000000 134.824000 88.324800 -53.228500 89.643600 1.112480 4.100790 15.735700 0.000005 -0.000001 86.624600 81.028600 -86.065200 8.984550 -0.406207 -0.000000 10.152100 -1.037970 1.210210 16.377300 -0.000001 -0.000001 2.683030 -3.917640 2.125010 6.456720 -0.000001 -0.000000 -0.255522 -3.680020 1.450920 12.994200 -0.242716 4.980390 -91.124000 3.941790 -74.070500 5.348090 -0.000007 -0.000001 -59.533600 37.663100 -26.332300 24.328600 0.000019 0.000005 9.646490 15.990000 -31.675600 22.291600 -0.000001 0.000005 15.279800 5.285780 0.467587 12.994500 -0.242716 -4.980390 88.406300 10.776200 -81.536100 -5.348130 -0.000001 -0.000004 -61.346900 30.765400 -13.203600 -24.328900 0.000322 -0.000009 1.145030 4.143450 -15.476200 -22.291500 -0.000108 -0.000004 15.007200 5.382020 -2.362150 -2.192480 -6.469440 -0.000000 -176.403000 -6.954210 -21.158300 39.081100 -0.000007 -0.000012 0.065891 -0.023799 70.136300 40.985400 -0.000006 -0.000013 0.746600 -3.795520 -62.914400 11.754300 -0.000000 0.000003 -0.002129 -0.030329 -17.810000 -2.192510 6.469440 -0.000001 -178.171000 14.466900 166.516000 -39.081100 -0.002282 -0.040193 0.050606 -0.050346 43.235600 -40.985400 0.000008 0.000006 9.994090 2.230850 -75.529900 -11.754300 -0.000006 -0.000006 -0.003289 -0.043834 -18.355900
